<svg width="current" height="current" viewBox="0 0 63 82" fill="none" xmlns="http://www.w3.org/2000/svg">
<g id="&#240;&#159;&#166;&#134; icon &#34;check list file thin&#34;">
<g id="Group 32">
<path id="Vector" d="M41.2785 39.8799L36.7875 35.0742L39.23 32.4607L41.3027 34.6786L46.6779 28.9563L49.1134 31.5771L41.2785 39.8799ZM41.2785 54.001L36.7875 49.1953L39.23 46.5819L41.3027 48.7998L46.6779 43.0774L49.1134 45.6983L41.2785 54.001ZM28.12 39.1554H14.9238V35.4588H28.12V39.1554ZM28.12 53.2396H14.9238V49.5429H28.12V53.2396ZM41.282 68.1259L36.791 63.3202L39.2334 60.7067L41.3061 62.9247L46.6814 57.1727L49.1238 59.7861L41.282 68.1259ZM28.12 67.3606H14.9238V63.664H28.12V67.3606ZM0 0.155762H45.3135L62.8039 18.8719V81.4817H0.000148922L0 0.155762ZM43.8729 3.85244H3.45459V77.7852H59.349V20.4021L43.8729 3.85244ZM62.8039 25.0342H39.5545V0.15592H45.3131L62.8035 18.872L62.8039 25.0342ZM43.009 21.3375H59.349V20.4023L43.8832 3.85244H43.0092L43.009 21.3375Z" fill="white"/>
</g>
</g>
</svg>
