<svg width="current" height="current" viewBox="0 0 76 82" fill="none" xmlns="http://www.w3.org/2000/svg">
<g id="&#240;&#159;&#166;&#134; icon &#34;storefront&#34;">
<path id="Vector" d="M69.3503 30.5112L64.8853 10.5525H53.0103H46.6453H41.1669H34.8336H29.3869H22.9903H11.1153L6.65027 30.5112C5.89027 33.9676 6.58693 37.4917 8.6136 40.2703C8.86693 40.6431 9.21527 40.9142 9.50027 41.253V71.5469H66.5003V41.253C66.7853 40.948 67.1336 40.6431 67.3869 40.3042C69.4136 37.5256 70.1419 33.9676 69.3503 30.5112ZM22.2303 17.3296L20.3936 33.7981C20.1403 36.0007 18.4936 37.6611 16.5619 37.6611C15.0103 37.6611 14.0286 36.6784 13.6169 36.0685C12.7936 34.9503 12.5086 33.4932 12.8253 32.1038L16.1186 17.3296H22.2303ZM59.8819 17.3296L63.2069 32.1038C63.5236 33.527 63.2386 34.9503 62.4153 36.0685C61.9719 36.6784 61.0219 37.6611 59.4386 37.6611C57.5069 37.6611 55.8286 36.0007 55.6069 33.7981L53.7703 17.3296H59.8819ZM49.1153 32.646C49.2736 33.9676 48.8936 35.2891 48.0703 36.2718C47.3419 37.1528 46.3286 37.6611 45.0303 37.6611C42.9086 37.6611 41.1669 35.6619 41.1669 33.2221V17.3296H47.3736L49.1153 32.646ZM34.8336 33.2221C34.8336 35.6619 33.0919 37.6611 30.7486 37.6611C29.6719 37.6611 28.6903 37.1528 27.9303 36.2718C27.1386 35.2891 26.7586 33.9676 26.8853 32.646L28.6269 17.3296H34.8336V33.2221ZM15.8336 64.7698V44.3366C16.0869 44.3705 16.3086 44.4383 16.5619 44.4383C19.3169 44.4383 21.8186 43.2184 23.6553 41.2191C25.5553 43.2523 28.0886 44.4383 30.9703 44.4383C33.7253 44.4383 36.1953 43.2184 38.0319 41.2869C39.9003 43.2184 42.4336 44.4383 45.2836 44.4383C47.9436 44.4383 50.4769 43.2523 52.3769 41.2191C54.2136 43.2184 56.7153 44.4383 59.4703 44.4383C59.7236 44.4383 59.9453 44.3705 60.1986 44.3366V64.7698H15.8336Z" fill="white"/>
</g>
</svg>
